<svg width="3053" height="3205" viewBox="0 0 3053 3205" fill="none" xmlns="http://www.w3.org/2000/svg">
<path d="M2766.48 46.6112H2726.53V13.8403H2843.92V46.6112H2803.97V168.492H2766.48V46.6112ZM2949.74 107.888L2992.61 13.8403H3024.26L3043.12 168.492H3004.51L2995.08 85.2181L2963.88 150.536H2935.6L2904.18 85.2181L2894.53 168.492H2855.92L2875 13.8403H2906.2L2949.74 107.888Z" fill="white" style="fill:white;fill-opacity:1;"/>
<path d="M329.287 43.9287C192.768 43.9287 82.0967 154.6 82.0967 291.12V2922.15C82.0967 3058.67 192.768 3169.34 329.288 3169.34H2118.83C2531.66 3169.34 2866.32 2834.67 2866.32 2421.85V791.422C2866.32 378.593 2531.66 43.9287 2118.83 43.9287H329.287Z" fill="url(#paint0_linear_96_31)" stroke="white" style="stroke:white;stroke-opacity:1;" stroke-width="71.0489"/>
<path d="M1757.49 1374.37V503.318H2301.9V2709.78H1757.49V1851.53H1084.98V2709.78H550.176V503.318H1084.98V1374.37H1757.49Z" fill="white" style="fill:white;fill-opacity:1;"/>
<path d="M458.09 1626.97L115.121 1824.98V1428.95L458.09 1626.97Z" fill="white" style="fill:white;fill-opacity:1;"/>
<path d="M2561.25 1621.4L2218.29 1819.42V1423.39L2561.25 1621.4Z" fill="white" style="fill:white;fill-opacity:1;"/>
<defs>
<linearGradient id="paint0_linear_96_31" x1="117.621" y1="79.4531" x2="1639.62" y2="1607" gradientUnits="userSpaceOnUse">
<stop stop-color="#4DFD4D" style="stop-color:#4DFD4D;stop-color:color(display-p3 0.3038 0.9933 0.3038);stop-opacity:1;"/>
<stop offset="1" stop-color="#011831" style="stop-color:#011831;stop-color:color(display-p3 0.0039 0.0941 0.1922);stop-opacity:1;"/>
</linearGradient>
</defs>
</svg>
